# xmcd
#
# Track frame offsets: 
#        182
#        21292
#        37877
#        55925
#        78240
#        97707
#        130092
#        145362
#        178440
#        198060
#        236687
#        254565
#        281652
#
# Disc length: 3966 seconds
#
# Revision: 6
# Processed by: cddbd v1.5.2PL0 Copyright (c) Steve Scherf et al.
# Submitted via: ExactAudioCopyFreeDBPlugin 1.0
#
DISCID=b10f7c0d
DTITLE=The Spinners - A One of a Kind Love Affair:  The Anthology
DYEAR=1991
DGENRE=Soul
TTITLE0=Games People Play
TTITLE1=I Don't Want to Lose You
TTITLE2=Honest I Do
TTITLE3=Love or Leave
TTITLE4=Sweet Love of Mine
TTITLE5=How Could I Let You Get Away (live)
TTITLE6=Wake Up Susan
TTITLE7=The Rubberband Man
TTITLE8=Me and My Music
TTITLE9=You're Throwing a Good Love Away
TTITLE10=Heaven on Earth (So Fine)
TTITLE11=Working My Way Back to You - Forgive Me, Girl
TTITLE12=Funny How Time Slips Away
EXTD=
EXTT0=
EXTT1=
EXTT2=
EXTT3=
EXTT4=
EXTT5=
EXTT6=
EXTT7=
EXTT8=
EXTT9=
EXTT10=
EXTT11=
EXTT12=
PLAYORDER=
